<svg xmlns="http://www.w3.org/2000/svg" version="1.1" xmlns:xlink="http://www.w3.org/1999/xlink" xmlns:svgjs="http://svgjs.dev/svgjs" width="50" height="50"><svg xmlns="http://www.w3.org/2000/svg" enable-background="new 0 0 50 50" viewBox="0 0 50 50" id="SvgjsSvg1013">
  <pattern id="SvgjsPattern1012" width="8.814" height="8.814" x="-280" y="-280" overflow="visible" patternUnits="userSpaceOnUse" viewBox="0 -8.814 8.814 8.814">
    <polygon fill="none" points="0 0 8.814 0 8.814 -8.814 0 -8.814"></polygon>
    <polygon fill="#88603F" points="8.814 0 0 0 0 -8.814 8.814 -8.814"></polygon>
  </pattern>
  <path fill="#95C6EA" d="M49,37.2519v4.39H1v-4.1301c0.1001-0.0953,1.7559-1.6707,1.65-1.5699c1.12-1.08,2.94-1.09,4.06-0.0099
		l0.01,0.0099c1.12,1.0699,2.94,1.0699,4.06,0l0.01-0.0099c1.12-1.0801,2.94-1.0701,4.06,0.0099c0.56,0.54,1.3,0.8,2.03,0.8
		c1.1419,0,1.6244-0.479,2.25-0.9801c1.13-0.9099,2.79-0.8398,3.85,0.1702l0.01,0.0099c0.797,0.7475,1.5648,0.7384,2.04,0.8
		c2.0643,0,1.9857-1.61,4.06-1.61c0.9094,0,1.7231,0.4609,1.93,0.72c0.03,0.02,0.06,0.05,0.09,0.0801l0.02,0.0099
		c1.11,1.0699,2.93,1.0699,4.05,0l0.01-0.0099c1.12-1.0801,2.94-1.0701,4.07,0.0099c0.5697,0.5427,1.2773,0.8,2.03,0.8
		c1.2793,0,1.9393-0.7477,2.04-0.8099c1.12-1.0801,2.94-1.0701,4.06,0.0099L49,37.2519z"></path>
  <polygon fill="#D25C59" points="42.845 25.495 23.196 22.099 24.686 14.168 41.844 17.405"></polygon>
  <path fill="#FCD183" d="M24.6796,39.9883c-7.2847,0.1825-15.0198,0.5225-18.1097-0.7621l3.9165-22.9746l9.9635-4.9494
				l7.761,7.9708L24.6796,39.9883z"></path>
  <polygon fill="#EE7373" points="30.399 20.037 28.921 21.484 20.237 12.563 9.087 18.103 8.172 16.248 20.667 10.037"></polygon>
  <rect width="14.383" height="17.34" x="26.034" y="23.98" fill="#FCCC67" transform="rotate(9.667 33.23 32.66)"></rect>
  <polygon fill="url(#a)" points="19.856 41.491 11.737 40.107 13.404 30.328 21.523 31.712"></polygon>
  <rect width="1.65" height="9.93" x="16.777" y="25.242" fill="#676767" transform="rotate(-80.328 17.601 30.206)"></rect>
  <path fill="#72B0E0" d="M37.232,32.0072l-0.9051,5.3091l-7.5735-1.291l0.9051-5.3091c0.3054-1.7915,2.2477-2.9541,4.3395-2.5975
					C36.0181,28.4631,37.5434,30.181,37.232,32.0072z"></path>
  <path fill="#FFF" d="M36.4665,37.475l-7.8972-1.3462l0.9274-5.4401c0.3172-1.8606,2.3463-3.072,4.5234-2.7009
					c2.072,0.3532,3.7027,2.118,3.3738,4.047L36.4665,37.475z M28.9384,35.9224l7.2483,1.2355l0.8828-5.1783
					c0.3041-1.7839-1.197-3.4066-3.094-3.7299c-1.9982-0.3406-3.8617,0.7781-4.1543,2.4944L28.9384,35.9224z"></path>
  <rect width=".329" height="4.554" x="32.758" y="32.149" fill="#FFF" transform="rotate(9.667 32.927 34.437)"></rect>
  <rect width="7.583" height=".266" x="29.563" y="32.057" fill="#FFF" transform="rotate(9.667 33.359 32.2)"></rect>
  <rect width="7.683" height=".266" x="29.081" y="34.293" fill="#FFF" transform="rotate(9.667 32.927 34.437)"></rect>
  <rect width="9.113" height="1.576" x="27.874" y="36.529" fill="#FFF" transform="rotate(9.667 32.434 37.329)"></rect>
  <path fill="#72B0E0" d="M22.806,19.0678l-0.8508,4.9907l-7.1518-1.2191l0.8508-4.9907
						c0.2871-1.684,2.1202-2.7756,4.0956-2.4389C21.6605,15.7355,23.0982,17.3539,22.806,19.0678z"></path>
  <path fill="#FFF" d="M22.0871,24.2078l-7.4575-1.2712l0.8718-5.1138c0.2982-1.749,2.2132-2.8864,4.269-2.536
						c1.9257,0.3283,3.5019,1.9686,3.1885,3.8072L22.0871,24.2078z M14.9779,22.7427l6.8447,1.1668l0.8298-4.8677
						c0.2864-1.6803-1.1368-3.2042-2.924-3.5089c-1.887-0.3217-3.6457,0.7287-3.9207,2.3421L14.9779,22.7427z"></path>
  <rect width=".311" height="4.281" x="18.583" y="19.199" fill="#FFF" transform="rotate(9.667 18.74 21.346)"></rect>
  <rect width="7.161" height=".25" x="15.564" y="19.112" fill="#FFF" transform="rotate(9.667 19.147 19.243)"></rect>
  <rect width="7.255" height=".25" x="15.111" y="21.214" fill="#FFF" transform="rotate(9.667 18.741 21.345)"></rect>
  <rect width="8.606" height="1.482" x="13.973" y="23.316" fill="#FFF" transform="rotate(9.667 18.277 24.063)"></rect>
  <polygon fill="#FCD183" points="39.231 20.011 40.047 15.225 36.82 11.911 32.677 13.969 31.861 18.755"></polygon>
  <polygon fill="#EE7373" points="40.957 15.543 40.343 16.145 36.731 12.435 32.095 14.739 31.715 13.967 36.911 11.384"></polygon>
  <g>
    <path fill="#72B0E0" d="M37.9163,15.6121l-0.4138,2.4271L34.146,17.467l0.4137-2.4271c0.1396-0.819,1.0039-1.3545,1.931-1.1965
					c0.4602,0.0784,0.8512,0.3173,1.1099,0.6383C37.8592,14.8026,37.9856,15.2056,37.9163,15.6121z"></path>
    <path fill="#FFF" d="M37.564,18.1113l-3.5-0.5966l0.424-2.487c0.145-0.8506,1.0479-1.4086,2.0128-1.2441
					c0.4654,0.0793,0.877,0.3159,1.1591,0.6662c0.2813,0.3486,0.3978,0.7659,0.3282,1.1746L37.564,18.1113z M34.2282,17.4195
					l3.2124,0.5476l0.4036-2.3673c0.0644-0.378-0.0431-0.7637-0.3028-1.0861c-0.2589-0.3211-0.6356-0.5379-1.061-0.6104
					c-0.8856-0.151-1.7148,0.3643-1.8486,1.1489L34.2282,17.4195z"></path>
    <rect width=".146" height="2.082" x="35.926" y="15.686" fill="#FFF" transform="rotate(9.667 36.005 16.734)"></rect>
    <rect width="3.361" height=".121" x="34.515" y="15.644" fill="#FFF" transform="rotate(9.667 36.202 15.711)"></rect>
    <rect width="3.405" height=".121" x="34.297" y="16.666" fill="#FFF" transform="rotate(9.667 36.005 16.734)"></rect>
    <rect width="4.039" height=".721" x="33.755" y="17.688" fill="#FFF" transform="rotate(9.667 35.78 18.056)"></rect>
  </g>
  <path fill="#C8CCCA" d="M49,6.0223c0,1.025-0.9449,1.8418-2.106,1.8418H38.734c-2.6652,0-2.8369-3.4765-0.1681-3.6756
		c-0.4558-1.4434,1.2017-2.5623,2.5945-1.9859c0.6697-1.5339,3.1772-1.5908,3.8998-0.016c1.3235-0.3113,2.7265,0.8106,2.3703,2.058
		C48.3433,4.4528,49,5.1734,49,6.0223z"></path>
  <path fill="#E6E6E5" d="M38.4377,7.1754c0,1.2572-1.1611,2.2662-2.5865,2.2662H25.8015c-1.4174,0-2.5785-1.009-2.5785-2.2662
		c0-1.2012,1.057-2.1621,2.3783-2.2582c-0.5319-1.8233,1.4472-3.1115,3.1951-2.4504c0.8037-1.84,3.8888-1.9832,4.7967-0.016
		c1.3741-0.3271,2.9789,0.6444,2.9789,2.09c0,0.1441-0.024,0.3043-0.0641,0.4484C37.6289,5.2375,38.4377,6.1264,38.4377,7.1754z"></path>
  <path fill="#C8CCCA" d="M15.59,10.8151c0,0.5604-0.5166,1.007-1.1514,1.007H9.9773c-1.4571,0-1.551-1.9007-0.0919-2.0096
		c-0.2492-0.7892,0.657-1.4009,1.4185-1.0858C11.6653,7.899,13.036,7.8464,13.436,8.718c0.7236-0.1702,1.4907,0.4432,1.2959,1.1252
		C15.231,9.957,15.59,10.3511,15.59,10.8151z"></path>
  <path fill="#E6E6E5" d="M9.8153,11.4456c0,0.6874-0.6348,1.239-1.4141,1.239H2.9067c-0.7749,0-1.4098-0.5516-1.4098-1.239
		c0-0.6567,0.5779-1.1821,1.3003-1.2346C2.5092,9.2237,3.5784,8.506,4.5441,8.8713C4.9935,7.8424,6.68,7.8084,7.1665,8.8625
		c0.883-0.2102,1.8277,0.5451,1.5936,1.3878C9.3731,10.3861,9.8153,10.8721,9.8153,11.4456z"></path>
  <path fill="#C8CCCA" d="M36.338 5.7708c.8644.004 1.658.7821 1.4662 1.6872-.1785.8415-1.0999 1.3547-1.9522 1.1808.6957-.1603 1.4265-.5544 1.5603-1.2616C37.5304 6.8618 37.2572 6.19 36.338 5.7708zM33.7742 3.2312c.4973-.2404 1.0652-.1871 1.5286.1298.4863.3584.7108.8824.4299 1.4405-.0272-.5193-.3064-.8614-.6598-1.1129C34.5915 3.3299 33.9822 3.2737 33.7742 3.2312zM29.5259 2.7913c.0973-.5336.5839-1.0616 1.6687-1.1666.907.0121 1.5579.5883 1.6721 1.1635-.4396-.5364-1.0604-.7582-1.6723-.7633C30.4913 2.0837 29.9719 2.2218 29.5259 2.7913zM26.3658 4.6752c-.3314-.6569-.0485-1.2082.4828-1.5278.5914-.3311 1.2784-.2334 1.6485.0631-.5487-.0375-1.041.0479-1.4472.2827C26.4275 3.8412 26.3957 4.3088 26.3658 4.6752zM25.8055 8.6388c-.9075.1752-1.9164-.4296-1.9782-1.3764-.0673-.9551.9072-1.6604 1.832-1.544-.783.2192-1.4983.7768-1.4327 1.5184C24.2589 7.9769 25.0003 8.4715 25.8055 8.6388z"></path>
  <path fill="#72B0E0" d="M49,41.0912v7.8801H1v-7.6201c0.1001-0.0953,1.7559-1.6707,1.65-1.5699c1.12-1.08,2.94-1.09,4.06-0.01
		l0.01,0.01c1.12,1.0699,2.94,1.0699,4.06,0l0.01-0.01c1.12-1.08,2.94-1.0699,4.06,0.01c1.1291,1.0889,2.996,1.0447,4.06,0
		l0.01-0.01c0.081-0.0807,0.1531-0.1245,0.21-0.17c2.1005-1.6913,3.9421,0.3224,4.37,0.5601c1.0134,0.6306,2.5121,0.593,3.55-0.38
		c0.56-0.5399,1.3-0.8099,2.04-0.8099c0.9094,0,1.7231,0.4609,1.93,0.72c0.03,0.02,0.06,0.05,0.09,0.08l0.02,0.01
		c1.11,1.0699,2.93,1.0699,4.05,0l0.01-0.01c1.12-1.08,2.94-1.0699,4.07,0.01c1.131,1.0774,2.9417,1.0595,4.06,0l0.01-0.01
		c1.12-1.08,2.94-1.0699,4.06,0.01L49,41.0912z"></path>
  <path fill="#72B0E0" d="M49,41.0912v7.8801H1v-7.6201c0.1001-0.0953,1.7559-1.6707,1.65-1.5699c1.12-1.08,2.94-1.09,4.06-0.01
		l0.01,0.01c1.12,1.0699,2.94,1.0699,4.06,0l0.01-0.01c1.12-1.08,2.94-1.0699,4.06,0.01c1.1291,1.0889,2.996,1.0447,4.06,0
		l0.01-0.01c0.081-0.0807,0.1531-0.1245,0.21-0.17c2.1005-1.6913,3.9421,0.3224,4.37,0.5601c1.0134,0.6306,2.5121,0.593,3.55-0.38
		c0.56-0.5399,1.3-0.8099,2.04-0.8099c0.9094,0,1.7231,0.4609,1.93,0.72c0.03,0.02,0.06,0.05,0.09,0.08l0.02,0.01
		c1.11,1.0699,2.93,1.0699,4.05,0l0.01-0.01c1.12-1.08,2.94-1.0699,4.07,0.01c1.131,1.0774,2.9417,1.0595,4.06,0l0.01-0.01
		c1.12-1.08,2.94-1.0699,4.06,0.01L49,41.0912z"></path>
  <path fill="#95C6EA" d="M49,44.5813v4.39H1v-4.1301c0.1001-0.0953,1.7559-1.6707,1.65-1.5699c1.12-1.08,2.94-1.09,4.06-0.0099
		l0.01,0.0099c1.12,1.0699,2.94,1.0699,4.06,0l0.01-0.0099c1.12-1.0801,2.94-1.0701,4.06,0.0099c0.56,0.54,1.3,0.8,2.03,0.8
		c1.2732,0,2.0078-0.8019,2.11-0.87c0.04-0.04,0.09-0.0701,0.14-0.1101c1.13-0.9099,2.79-0.8398,3.85,0.1702
		c0.1001,0.0369,2.0889,1.8671,4.07,0.0099c1.2086-1.1653,3.2789-0.9551,3.97-0.09c0.03,0.02,0.06,0.05,0.09,0.0801l0.02,0.0099
		c1.11,1.0699,2.93,1.0699,4.05,0l0.01-0.0099c1.12-1.0801,2.94-1.0701,4.07,0.0099c0.5697,0.5427,1.2773,0.8,2.03,0.8
		c1.2793,0,1.9393-0.7477,2.04-0.8099c1.12-1.0801,2.94-1.0701,4.06,0.0099L49,44.5813z"></path>
</svg><style>@media (prefers-color-scheme: light) { :root { filter: none; } }
@media (prefers-color-scheme: dark) { :root { filter: none; } }
</style></svg>